<?xml version="1.0" standalone="no"?>
<!DOCTYPE svg PUBLIC "-//W3C//DTD SVG 20010904//EN"
 "http://www.w3.org/TR/2001/REC-SVG-20010904/DTD/svg10.dtd">
<svg version="1.0" xmlns="http://www.w3.org/2000/svg"
 width="700.000000pt" height="700.000000pt" viewBox="0 0 700.000000 700.000000"
 preserveAspectRatio="xMidYMid meet">
<metadata>
Created by potrace 1.14, written by Peter Selinger 2001-2017
</metadata>
<g transform="translate(0.000000,700.000000) scale(0.100000,-0.100000)"
fill="#000000" stroke="none">
<path d="M4328 5975 c-2 -1 -50 -5 -108 -9 -58 -3 -114 -8 -125 -10 -11 -2
-42 -7 -70 -10 -81 -12 -105 -16 -200 -37 -49 -12 -97 -22 -105 -24 -40 -9
-218 -69 -296 -101 -181 -73 -397 -191 -548 -300 -34 -24 -72 -52 -85 -61
-126 -91 -257 -215 -661 -629 -565 -577 -629 -642 -710 -718 -391 -365 -737
-546 -1108 -579 -23 -2 -45 -7 -48 -10 -7 -6 -7 -1207 -1 -1214 6 -6 130 77
242 161 44 33 136 116 206 185 165 166 243 265 464 591 428 631 578 829 810
1070 507 527 617 622 842 734 90 44 211 93 220 88 2 -1 21 5 43 13 22 8 40 12
40 10 0 -2 15 1 32 6 82 23 258 21 377 -5 71 -16 204 -75 252 -113 53 -40 131
-125 161 -175 33 -52 33 -53 36 -23 8 97 58 217 115 276 55 58 119 84 207 84
234 -1 461 -220 561 -540 10 -33 19 -71 20 -85 l1 -25 8 25 c5 14 20 66 34
117 63 226 169 363 281 363 36 0 104 -30 127 -56 15 -18 13 -26 -42 -137 -82
-168 -168 -437 -195 -607 -4 -25 -9 -54 -11 -65 -21 -124 -34 -547 -20 -625 2
-14 7 -56 11 -95 5 -59 28 -210 51 -330 13 -75 67 -273 103 -381 274 -832 801
-1510 1401 -1804 128 -63 117 -72 116 86 l-1 137 -100 60 c-55 33 -102 63
-105 66 -3 3 -44 35 -93 71 -109 81 -337 313 -438 445 -283 373 -483 781 -594
1210 -43 167 -59 247 -76 380 -5 44 -12 98 -15 120 -10 69 -11 397 -3 475 5
41 11 100 15 130 15 148 80 383 148 536 l33 75 25 -53 c95 -201 226 -679 264
-966 4 -29 9 -51 11 -48 2 2 15 48 29 102 78 308 177 523 293 632 52 49 89 66
147 65 56 0 96 -22 146 -78 63 -70 126 -246 143 -400 3 -27 7 -66 10 -85 2
-19 4 -50 4 -68 1 -46 13 -34 54 50 81 170 106 326 84 519 -8 62 -49 212 -74
269 -67 151 -110 226 -207 355 -74 99 -286 311 -387 387 -92 69 -254 178 -265
178 -4 0 -15 6 -23 14 -86 73 -571 270 -741 299 -14 3 -54 12 -90 20 -36 9
-103 21 -150 27 -47 7 -96 14 -110 16 -14 3 -90 7 -170 10 -80 3 -155 6 -167
8 -13 2 -24 2 -25 1z"/>
<path d="M3734 4635 c-237 -62 -506 -205 -774 -413 -47 -37 -90 -71 -96 -77
-6 -5 -33 -29 -61 -52 -98 -84 -228 -209 -358 -345 -780 -817 -1484 -2058
-1755 -3093 -39 -148 -90 -380 -90 -409 0 -13 77 -14 622 -13 l622 2 2 80 c3
122 14 317 18 345 2 14 7 59 10 100 4 41 8 86 10 100 4 22 7 47 22 157 91 692
353 1516 683 2148 354 677 779 1188 1202 1445 94 57 84 62 -57 25z"/>
<path d="M4210 4395 c-114 -89 -213 -185 -324 -314 -161 -187 -379 -557 -511
-866 -26 -60 -53 -124 -60 -140 -43 -96 -136 -364 -194 -565 -45 -152 -117
-427 -127 -489 -3 -14 -11 -54 -19 -89 -8 -34 -17 -77 -20 -95 -3 -17 -12 -66
-20 -107 -16 -82 -40 -236 -50 -315 -4 -27 -8 -60 -10 -73 -2 -13 -7 -53 -11
-90 -3 -37 -8 -69 -9 -72 -2 -3 -6 -50 -10 -105 -4 -55 -9 -107 -10 -116 -11
-60 -21 -445 -16 -665 l1 -62 535 0 c294 0 535 1 535 3 0 1 -16 38 -35 80 -48
105 -122 319 -140 404 -2 9 -13 54 -24 101 -11 47 -22 99 -25 115 -10 52 -27
158 -32 200 -3 22 -7 54 -9 70 -3 17 -7 55 -10 85 -3 30 -8 73 -10 95 -23 230
-24 745 0 951 2 21 7 71 10 111 3 39 8 82 10 95 2 13 7 50 10 83 10 83 11 87
29 200 22 135 24 146 47 255 43 204 96 394 164 590 98 284 258 589 385 733 23
26 40 50 38 53 -3 2 -43 -25 -88 -61z"/>
<path d="M4565 3973 c-92 -251 -161 -542 -200 -848 -2 -16 -6 -66 -10 -110 -3
-44 -8 -103 -11 -132 -11 -126 -5 -490 12 -663 10 -106 12 -124 24 -209 6 -44
13 -93 15 -108 2 -16 6 -39 9 -53 3 -14 8 -41 10 -60 3 -19 12 -69 21 -110 9
-41 18 -84 21 -95 80 -386 279 -924 474 -1285 l35 -65 534 -2 c293 -1 531 0
529 2 -2 2 -27 21 -57 44 -178 133 -387 354 -552 583 -175 242 -367 598 -486
898 -122 308 -245 726 -278 950 -4 25 -8 47 -10 50 -2 3 -6 26 -10 50 -3 25
-8 56 -10 70 -15 107 -22 158 -30 235 -31 290 -24 724 15 935 5 25 7 46 5 48
-1 2 -24 -54 -50 -125z"/>
</g>
</svg>
