<svg xmlns="http://www.w3.org/2000/svg" width="28.8" height="28.8" viewBox="0 0 28.8 28.8">
  <path id="Logo_Instagram" data-name="Logo Instagram" d="M418.834,4349.6H401.166a5.572,5.572,0,0,0-5.566,5.565v17.669a5.572,5.572,0,0,0,5.566,5.565h17.668a5.572,5.572,0,0,0,5.566-5.565v-17.669A5.572,5.572,0,0,0,418.834,4349.6Zm1.6,3.319.637,0v4.881l-4.865.016-.017-4.881Zm-14.541,8.125a5.061,5.061,0,1,1-.959,2.957A5.065,5.065,0,0,1,405.889,4361.043Zm15.7,11.791a2.763,2.763,0,0,1-2.76,2.76H401.166a2.762,2.762,0,0,1-2.76-2.76v-11.791h4.3a7.875,7.875,0,1,0,14.589,0h4.3Z" transform="translate(-395.6 -4349.599)" fill="#00b0ff"/>
</svg>
