<svg xmlns="http://www.w3.org/2000/svg" width="8" height="16" viewBox="0 0 8 16">
  <path id="Logo" d="M1434.266,42.366a1.64,1.64,0,0,1,.286-.138,2.654,2.654,0,0,1,.322-.1l.656-.126h.429l3.028.229H1439l-.31,2.7h-.012l-1.669-.172h-.047l-.167.023-.06.023-.191.091a.155.155,0,0,0-.1.057l-.143.149a.6.6,0,0,0-.083.137.837.837,0,0,0-.06.149,1.083,1.083,0,0,0-.036.172,1.149,1.149,0,0,0-.012.172l.024,1.692,2.456.023-.358,2.676-2.122.08v7.788L1436.1,58h-3.314V50.131H1431V47.444h1.717V47.42l.012-.034.06-2.871.024-.16v-.08l.024-.08a.617.617,0,0,1,.048-.172.522.522,0,0,1,.071-.148,1.228,1.228,0,0,1,.131-.309,1.551,1.551,0,0,1,.179-.286,1.415,1.415,0,0,1,.2-.24,2.082,2.082,0,0,1,.227-.229V42.8Z" transform="translate(-1431 -41.999)" fill="#fff"/>
</svg>
