<svg xmlns="http://www.w3.org/2000/svg" width="16" height="16" viewBox="0 0 16 16">
  <path id="Logo" d="M1485.908,42h-9.816A3.1,3.1,0,0,0,1473,45.091v9.817A3.1,3.1,0,0,0,1476.092,58h9.816A3.1,3.1,0,0,0,1489,54.908V45.091A3.1,3.1,0,0,0,1485.908,42Zm.887,1.844h.354v2.712l-2.7.009-.009-2.712Zm-8.078,4.513a2.812,2.812,0,1,1-.533,1.643A2.815,2.815,0,0,1,1478.716,48.357Zm8.725,6.551a1.535,1.535,0,0,1-1.533,1.533h-9.816a1.535,1.535,0,0,1-1.533-1.533V48.357h2.389a4.375,4.375,0,1,0,8.1,0h2.389Z" transform="translate(-1473 -41.999)" fill="#f2f2f2"/>
</svg>
