<svg xmlns="http://www.w3.org/2000/svg" width="19.2" height="14.4" viewBox="0 0 19.2 14.4">
  <path id="Icon" d="M1535.4,57.223h-16.8a1.2,1.2,0,0,1-1.2-1.2V44.816l5.519,5.093-4.542,6.193,6.123-4.735L1526.27,53a1.144,1.144,0,0,0,.67.228.309.309,0,0,0,.049,0,1.377,1.377,0,0,0,.565-.14,1.82,1.82,0,0,0,.186-.1l1.854-1.716,6.045,4.822-4.625-6.136,5.586-5.17V56.022A1.2,1.2,0,0,1,1535.4,57.223Zm-8.406-6.326h0l-9.593-6.874a1.2,1.2,0,0,1,1.2-1.2h16.8a1.2,1.2,0,0,1,1.2,1.2l-9.605,6.874Z" transform="translate(-1517.4 -42.823)" fill="#fff"/>
</svg>
